<svg xmlns="http://www.w3.org/2000/svg" viewBox="0 0 26.64 17.2"><defs><style>.cls-1{fill:none;stroke:#fff;stroke-miterlimit:10;stroke-width:2px;}.cls-1,.cls-2{fill-rule:evenodd;}.cls-2{fill:#fff;}</style></defs><title>Shuffle</title><g id="Layer_2" data-name="Layer 2"><g id="Layer_1-2" data-name="Layer 1"><path class="cls-1" d="M.18,4.08s8.15-1.49,12.6,3,3.71,7.42,9.64,7.42"/><path class="cls-1" d="M.18,13.48s8.15,1.48,12.6-3S16.49,3.1,22.42,3.1"/><path class="cls-2" d="M26.45,2.8,21.89.05a.39.39,0,0,0-.58.33V5.7a.38.38,0,0,0,.57.33l4.57-2.57A.38.38,0,0,0,26.45,2.8Z"/><path class="cls-2" d="M26.45,13.92l-4.56-2.74a.38.38,0,0,0-.58.32v5.32a.38.38,0,0,0,.57.33l4.57-2.57A.38.38,0,0,0,26.45,13.92Z"/></g></g></svg>